# This file uses centimeters as units for non-parametric coordinates.

mtllib head.mtl
g default
v 12.912436 255.770423 46.487577
v 10.903810 251.841642 46.811928
v 7.775304 248.723740 47.069336
v 3.833155 246.721926 47.234601
v -0.536746 246.032151 47.291547
v -4.906649 246.721933 47.234600
v -8.848790 248.723740 47.069336
v -11.977307 251.841649 46.811928
v -13.985921 255.770425 46.487577
v -14.678050 260.125509 46.128031
v -13.985921 264.480593 45.768485
v -11.977307 268.409368 45.444134
v -8.848789 271.527275 45.186726
v -4.906647 273.529082 45.021462
v -0.536747 274.218864 44.964515
v 3.833154 273.529079 45.021462
v 7.775294 271.527275 45.186726
v 10.903810 268.409372 45.444134
v 12.912423 264.480593 45.768485
v 13.604553 260.125509 46.128031
v 89.969502 219.369539 -99.079539
v 76.452470 192.930816 -96.896817
v 55.399195 171.948920 -95.164599
v 28.870514 158.477732 -94.052447
v -0.536736 153.835876 -93.669254
v -29.943986 158.477746 -94.052448
v -56.472643 171.948948 -95.164601
v -77.525914 192.930833 -96.896819
v -91.042932 219.369546 -99.079540
v -95.700578 248.677083 -101.499105
v -91.042932 277.984618 -103.918670
v -77.525914 304.423327 -106.101391
v -56.472639 325.405209 -107.833609
v -29.943979 338.876417 -108.945762
v -0.536739 343.518264 -109.328982
v 28.870493 338.876404 -108.945761
v 55.399147 325.405195 -107.833608
v 76.452408 304.423327 -106.101391
v 89.969433 277.984614 -103.918670
v 94.627085 248.677083 -101.499105
v -0.289499 260.204529 47.829069
v -0.536743 252.762762 -43.054969
v 98.982122 218.085848 -79.037181
v 104.103567 250.311841 -81.697687
v 98.982052 282.537820 -84.358193
v 84.119016 311.609297 -86.758269
v 60.969259 334.680563 -88.662981
v 31.798878 349.493212 -89.885881
v -0.536738 354.597377 -90.307269
v -32.872353 349.493226 -89.885882
v -62.042738 334.680591 -88.662984
v -85.192509 311.609304 -86.758270
v -100.055552 282.537824 -84.358193
v -105.177067 250.311841 -81.697687
v -100.055552 218.085858 -79.037182
v -85.192509 189.014374 -76.637105
v -62.042752 165.943088 -74.732391
v -32.872364 151.130425 -73.509490
v -0.536735 146.026281 -73.088103
v 31.798892 151.130411 -73.509489
v 60.969294 165.943081 -74.732390
v 84.119057 189.014360 -76.637104
v 19.083653 270.309756 -3.767892
v 13.718292 275.656919 -4.209342
v 6.957574 279.089991 -4.492769
v -0.536746 280.272959 -4.590432
v -8.031066 279.089991 -4.492769
v -14.791786 275.656919 -4.209342
v -20.157149 270.309751 -3.767888
v -23.601896 263.571954 -3.211631
v -24.788890 256.103044 -2.595014
v -23.601896 248.634132 -1.978401
v -20.157149 241.896336 -1.422143
v -14.791788 236.549165 -0.980693
v -8.031069 233.116093 -0.697266
v -0.536745 231.933125 -0.599603
v 6.957577 233.116081 -0.697265
v 13.718309 236.549165 -0.980693
v 19.083655 241.896324 -1.422142
v 22.528422 248.634128 -1.978401
v 23.715394 256.103043 -2.595018
v 22.528400 263.571954 -3.211634
v 51.192058 290.752406 -32.021673
v 37.046380 304.850098 -33.185547
v 19.221882 313.901324 -33.932796
v -0.536743 317.020189 -34.190283
v -20.295371 313.901324 -33.932796
v -38.119873 304.850098 -33.185547
v -52.265551 290.752385 -32.021671
v -61.347549 272.988321 -30.555110
v -64.477040 253.296686 -28.929412
v -61.347549 233.605050 -27.303714
v -52.265551 215.840985 -25.837153
v -38.119876 201.743269 -24.673277
v -20.295377 192.692043 -23.926027
v -0.536741 189.573178 -23.668541
v 19.221894 192.691995 -23.926023
v 37.046429 201.743269 -24.673277
v 51.192062 215.840940 -25.837149
v 60.274133 233.605039 -27.303713
v 63.403540 253.296686 -28.929412
v 60.274056 272.988321 -30.555110
v 106.152614 249.398240 -92.763911
v 100.930850 282.255272 -95.476514
v 85.776740 311.896037 -97.923590
v 62.173671 335.419085 -99.865600
v 32.432076 350.521800 -101.112447
v -0.536738 355.725887 -101.542085
v -33.505562 350.521821 -101.112449
v -63.247157 335.419106 -99.865602
v -86.850240 311.896037 -97.923590
v -102.004350 282.255279 -95.476515
v -107.226121 249.398240 -92.763911
v -102.004350 216.541204 -90.051307
v -86.850240 186.900436 -87.604231
v -63.247171 163.377374 -85.662219
v -33.505565 148.274652 -84.415372
v -0.536735 143.070572 -83.985735
v 32.432093 148.274632 -84.415370
v 62.173713 163.377360 -85.662218
v 85.776796 186.900422 -87.604230
v 100.930913 216.541194 -90.051306
v 22.528398 266.861428 36.632877
v 19.083653 273.599229 36.076619
v 13.718291 278.946393 35.635169
v 6.957574 282.379460 35.351743
v -0.536746 283.562431 35.254079
v -8.031066 282.379465 35.351742
v -14.791785 278.946393 35.635169
v -20.157149 273.599224 36.076623
v -23.601894 266.861429 36.632880
v -24.788889 259.392518 37.249497
v -23.601894 251.923606 37.866110
v -20.157149 245.185810 38.422368
v -14.791788 239.838639 38.863818
v -8.031069 236.405567 39.147245
v -0.536745 235.222601 39.244908
v 6.957577 236.405555 39.147246
v 13.718309 239.838639 38.863818
v 19.083655 245.185799 38.422369
v 22.528422 251.923604 37.866111
v 23.715394 259.392517 37.249494
vt 0.648603 0.107966
vt 0.626409 0.064408
vt 0.591842 0.029841
vt 0.548284 0.007647
vt 0.500000 -0.000000
vt 0.451716 0.007647
vt 0.408159 0.029841
vt 0.373591 0.064409
vt 0.351397 0.107966
vt 0.343750 0.156250
vt 0.351397 0.204534
vt 0.373591 0.248091
vt 0.408159 0.282659
vt 0.451716 0.304853
vt 0.500000 0.312500
vt 0.548284 0.304853
vt 0.591841 0.282659
vt 0.626409 0.248091
vt 0.648603 0.204534
vt 0.656250 0.156250
vt 0.375000 0.312500
vt 0.387500 0.312500
vt 0.400000 0.312500
vt 0.412500 0.312500
vt 0.425000 0.312500
vt 0.437500 0.312500
vt 0.450000 0.312500
vt 0.462500 0.312500
vt 0.475000 0.312500
vt 0.487500 0.312500
vt 0.500000 0.312500
vt 0.512500 0.312500
vt 0.525000 0.312500
vt 0.537500 0.312500
vt 0.550000 0.312500
vt 0.562500 0.312500
vt 0.575000 0.312500
vt 0.587500 0.312500
vt 0.600000 0.312500
vt 0.612500 0.312500
vt 0.625000 0.312500
vt 0.375000 0.688440
vt 0.387500 0.688440
vt 0.400000 0.688440
vt 0.412500 0.688440
vt 0.425000 0.688440
vt 0.437500 0.688440
vt 0.450000 0.688440
vt 0.462500 0.688440
vt 0.475000 0.688440
vt 0.487500 0.688440
vt 0.500000 0.688440
vt 0.512500 0.688440
vt 0.525000 0.688440
vt 0.537500 0.688440
vt 0.550000 0.688440
vt 0.562500 0.688440
vt 0.575000 0.688440
vt 0.587500 0.688440
vt 0.600000 0.688440
vt 0.612500 0.688440
vt 0.625000 0.688440
vt 0.648603 0.795466
vt 0.626409 0.751908
vt 0.591842 0.717341
vt 0.548284 0.695147
vt 0.500000 0.687500
vt 0.451716 0.695147
vt 0.408159 0.717341
vt 0.373591 0.751909
vt 0.351397 0.795466
vt 0.343750 0.843750
vt 0.351397 0.892034
vt 0.373591 0.935591
vt 0.408159 0.970159
vt 0.451716 0.992353
vt 0.500000 1.000000
vt 0.548284 0.992353
vt 0.591841 0.970159
vt 0.626409 0.935591
vt 0.648603 0.892034
vt 0.656250 0.843750
vt 0.500000 0.150000
vt 0.500000 0.837500
vt 0.625000 0.589602
vt 0.375000 0.589602
vt 0.612500 0.589602
vt 0.600000 0.589602
vt 0.587500 0.589602
vt 0.575000 0.589602
vt 0.562500 0.589602
vt 0.550000 0.589602
vt 0.537500 0.589602
vt 0.525000 0.589602
vt 0.512500 0.589602
vt 0.500000 0.589602
vt 0.487500 0.589602
vt 0.475000 0.589602
vt 0.462500 0.589602
vt 0.450000 0.589602
vt 0.437500 0.589602
vt 0.425000 0.589602
vt 0.412500 0.589602
vt 0.400000 0.589602
vt 0.387500 0.589602
vt 0.587500 0.513738
vt 0.575000 0.513738
vt 0.562500 0.513738
vt 0.550000 0.513738
vt 0.537500 0.513738
vt 0.525000 0.513738
vt 0.512500 0.513738
vt 0.500000 0.513738
vt 0.487500 0.513738
vt 0.475000 0.513738
vt 0.462500 0.513738
vt 0.450000 0.513738
vt 0.437500 0.513738
vt 0.425000 0.513738
vt 0.412500 0.513738
vt 0.400000 0.513738
vt 0.387500 0.513738
vt 0.625000 0.513738
vt 0.375000 0.513738
vt 0.612500 0.513738
vt 0.600000 0.513738
vt 0.587500 0.560713
vt 0.575000 0.560713
vt 0.562500 0.560713
vt 0.550000 0.560713
vt 0.537500 0.560713
vt 0.525000 0.560713
vt 0.512500 0.560713
vt 0.500000 0.560713
vt 0.487500 0.560713
vt 0.475000 0.560713
vt 0.462500 0.560713
vt 0.450000 0.560713
vt 0.437500 0.560713
vt 0.425000 0.560713
vt 0.412500 0.560713
vt 0.400000 0.560713
vt 0.387500 0.560713
vt 0.625000 0.560713
vt 0.375000 0.560713
vt 0.612500 0.560713
vt 0.600000 0.560713
vt 0.612500 0.623949
vt 0.600000 0.623949
vt 0.587500 0.623949
vt 0.575000 0.623949
vt 0.562500 0.623949
vt 0.550000 0.623949
vt 0.537500 0.623949
vt 0.525000 0.623949
vt 0.512500 0.623949
vt 0.500000 0.623949
vt 0.487500 0.623949
vt 0.475000 0.623949
vt 0.462500 0.623949
vt 0.450000 0.623949
vt 0.437500 0.623949
vt 0.425000 0.623949
vt 0.412500 0.623949
vt 0.400000 0.623949
vt 0.387500 0.623949
vt 0.625000 0.623949
vt 0.375000 0.623949
vt 0.600000 0.349171
vt 0.587500 0.349171
vt 0.575000 0.349171
vt 0.562500 0.349171
vt 0.550000 0.349171
vt 0.537500 0.349171
vt 0.525000 0.349171
vt 0.512500 0.349171
vt 0.500000 0.349171
vt 0.487500 0.349171
vt 0.475000 0.349171
vt 0.462500 0.349171
vt 0.450000 0.349171
vt 0.437500 0.349171
vt 0.425000 0.349171
vt 0.412500 0.349171
vt 0.400000 0.349171
vt 0.387500 0.349171
vt 0.625000 0.349171
vt 0.375000 0.349171
vt 0.612500 0.349171
vn 0.628740 -0.141863 0.764566
vn 0.534838 -0.325532 0.779729
vn 0.798954 -0.565570 0.204456
vn 0.939228 -0.291202 0.181805
vn 0.388583 -0.471292 0.791762
vn 0.580475 -0.783309 0.222432
vn 0.204290 -0.564875 0.799489
vn 0.305173 -0.923106 0.233974
vn -0.000001 -0.597122 0.802151
vn -0.000001 -0.971277 0.237950
vn -0.204290 -0.564875 0.799488
vn -0.305173 -0.923106 0.233974
vn -0.388583 -0.471292 0.791762
vn -0.580475 -0.783309 0.222432
vn -0.534838 -0.325532 0.779729
vn -0.798955 -0.565570 0.204456
vn -0.628740 -0.141864 0.764565
vn -0.939227 -0.291202 0.181805
vn -0.661096 0.061733 0.747757
vn -0.987562 0.012936 0.156696
vn -0.628740 0.265331 0.730949
vn -0.939227 0.317075 0.131587
vn -0.534838 0.448998 0.715786
vn -0.798955 0.591443 0.108936
vn -0.388582 0.594758 0.703752
vn -0.580474 0.809182 0.090960
vn -0.204290 0.688341 0.696026
vn -0.305173 0.948979 0.079419
vn 0.000000 0.720588 0.693363
vn 0.000000 0.997150 0.075442
vn 0.204290 0.688341 0.696026
vn 0.305173 0.948979 0.079419
vn 0.388582 0.594758 0.703752
vn 0.580474 0.809182 0.090960
vn 0.534838 0.448998 0.715785
vn 0.798955 0.591443 0.108936
vn 0.628740 0.265330 0.730948
vn 0.939227 0.317075 0.131587
vn 0.661096 0.061734 0.747757
vn 0.987562 0.012938 0.156696
vn 0.098221 0.010434 0.995110
vn 0.115674 0.044191 0.992304
vn 0.001046 0.082020 0.996630
vn 0.071065 -0.016078 0.997342
vn 0.037073 -0.032701 0.998777
vn -0.000234 -0.037897 0.999282
vn -0.037099 -0.031336 0.998820
vn -0.069937 -0.013866 0.997455
vn -0.095670 0.012650 0.995333
vn -0.111980 0.045573 0.992665
vn -0.117454 0.081764 0.989707
vn -0.111658 0.117849 0.986734
vn -0.095146 0.150493 0.984022
vn -0.069407 0.176657 0.981822
vn -0.036766 0.193829 0.980346
vn -0.000230 0.200258 0.979743
vn 0.036739 0.195146 0.980086
vn 0.070516 0.178790 0.981357
vn 0.097666 0.152624 0.983447
vn 0.115328 0.119153 0.986155
vn 0.121573 0.081728 0.989212
vn -0.499545 0.091361 -0.861457
vn -0.425691 0.237875 -0.873042
vn -0.000000 -0.080545 -0.996751
vn -0.309719 0.354519 -0.882264
vn -0.162976 0.429583 -0.888199
vn 0.000000 0.455480 -0.890246
vn 0.162976 0.429583 -0.888199
vn 0.309719 0.354519 -0.882264
vn 0.425691 0.237876 -0.873042
vn 0.499545 0.091362 -0.861457
vn 0.524224 -0.070445 -0.848662
vn 0.497591 -0.231618 -0.835916
vn 0.422531 -0.376475 -0.824460
vn 0.306558 -0.491072 -0.815396
vn 0.161023 -0.564478 -0.809590
vn -0.000000 -0.589742 -0.807592
vn -0.161023 -0.564478 -0.809590
vn -0.306558 -0.491072 -0.815396
vn -0.422531 -0.376475 -0.824460
vn -0.497591 -0.231618 -0.835916
vn -0.524224 -0.070445 -0.848662
vn 0.842182 0.045790 0.537246
vn 0.803632 -0.214737 0.555035
vn 0.871662 -0.315170 -0.375332
vn 0.916519 -0.032910 -0.398636
vn 0.798299 0.304586 0.519564
vn 0.871661 0.249350 -0.421938
vn 0.677034 0.536570 0.503704
vn 0.741480 0.503980 -0.442959
vn 0.490720 0.719679 0.491178
vn 0.538716 0.706055 -0.459642
vn 0.257592 0.836778 0.483165
vn 0.283220 0.835795 -0.470353
vn 0.000000 0.877044 0.480409
vn 0.000000 0.880501 -0.474044
vn -0.257591 0.836778 0.483165
vn -0.283220 0.835795 -0.470353
vn -0.490720 0.719679 0.491178
vn -0.538716 0.706055 -0.459642
vn -0.677034 0.536570 0.503704
vn -0.741480 0.503980 -0.442959
vn -0.798299 0.304586 0.519564
vn -0.871661 0.249350 -0.421938
vn -0.842181 0.045789 0.537247
vn -0.916519 -0.032910 -0.398636
vn -0.803631 -0.214738 0.555035
vn -0.871661 -0.315170 -0.375332
vn -0.685663 -0.451251 0.571174
vn -0.741480 -0.569800 -0.354310
vn -0.499349 -0.639956 0.584043
vn -0.538716 -0.771876 -0.337628
vn -0.262924 -0.761584 0.592335
vn -0.283220 -0.901616 -0.326917
vn -0.000000 -0.803580 0.595197
vn -0.000000 -0.946322 -0.323227
vn 0.262924 -0.761584 0.592335
vn 0.283220 -0.901616 -0.326917
vn 0.499349 -0.639957 0.584043
vn 0.538716 -0.771876 -0.337627
vn 0.685663 -0.451251 0.571174
vn 0.741480 -0.569800 -0.354310
vn 0.450385 0.671161 0.588810
vn 0.619082 0.501733 0.604153
vn 0.597604 0.486896 0.637026
vn 0.433562 0.649035 0.625123
vn 0.236983 0.780174 0.578936
vn 0.227727 0.752886 0.617498
vn 0.000000 0.817781 0.575530
vn 0.000000 0.788626 0.614874
vn -0.236983 0.780174 0.578936
vn -0.227726 0.752886 0.617498
vn -0.450385 0.671160 0.588810
vn -0.433562 0.649035 0.625123
vn -0.619082 0.501733 0.604153
vn -0.597604 0.486896 0.637026
vn -0.726559 0.288878 0.623427
vn -0.703792 0.281924 0.652070
vn -0.762531 0.053757 0.644714
vn -0.741484 0.053844 0.668806
vn -0.723861 -0.180492 0.665919
vn -0.706591 -0.175144 0.685604
vn -0.614716 -0.391061 0.684978
vn -0.602132 -0.382491 0.700812
vn -0.446020 -0.557664 0.700055
vn -0.438090 -0.547565 0.712916
vn -0.234285 -0.664393 0.709713
vn -0.230525 -0.653791 0.720704
vn -0.000001 -0.701126 0.713037
vn -0.000001 -0.690438 0.723391
vn 0.234284 -0.664393 0.709714
vn 0.230525 -0.653792 0.720705
vn 0.446020 -0.557664 0.700055
vn 0.438090 -0.547565 0.712916
vn 0.614716 -0.391062 0.684978
vn 0.602132 -0.382491 0.700812
vn 0.723860 -0.180492 0.665920
vn 0.706591 -0.175143 0.685605
vn 0.762531 0.053758 0.644714
vn 0.741484 0.053845 0.668806
vn 0.726559 0.288878 0.623427
vn 0.703792 0.281924 0.652070
vn 0.605325 -0.065491 -0.793280
vn 0.575698 0.120930 -0.808670
vn 0.489718 0.289103 -0.822554
vn 0.355801 0.422566 -0.833573
vn 0.187056 0.508255 -0.840647
vn 0.000000 0.537781 -0.843085
vn -0.187056 0.508255 -0.840647
vn -0.355801 0.422566 -0.833573
vn -0.489718 0.289104 -0.822554
vn -0.575698 0.120930 -0.808670
vn -0.605324 -0.065491 -0.793280
vn -0.575698 -0.251913 -0.777889
vn -0.489718 -0.420086 -0.764005
vn -0.355801 -0.553549 -0.752987
vn -0.187056 -0.639238 -0.745912
vn -0.000000 -0.668764 -0.743475
vn 0.187056 -0.639238 -0.745912
vn 0.355801 -0.553549 -0.752987
vn 0.489719 -0.420086 -0.764005
vn 0.575698 -0.251912 -0.777889
s 1
g pCylinder5
usemtl initialShadingGroup
f 1/21/1 2/22/2 140/186/3 141/188/4
f 2/22/2 3/23/5 139/185/6 140/186/3
f 3/23/5 4/24/7 138/184/8 139/185/6
f 4/24/7 5/25/9 137/183/10 138/184/8
f 5/25/9 6/26/11 136/182/12 137/183/10
f 6/26/11 7/27/13 135/181/14 136/182/12
f 7/27/13 8/28/15 134/180/16 135/181/14
f 8/28/15 9/29/17 133/179/18 134/180/16
f 9/29/17 10/30/19 132/178/20 133/179/18
f 10/30/19 11/31/21 131/177/22 132/178/20
f 11/31/21 12/32/23 130/176/24 131/177/22
f 12/32/23 13/33/25 129/175/26 130/176/24
f 13/33/25 14/34/27 128/174/28 129/175/26
f 14/34/27 15/35/29 127/173/30 128/174/28
f 15/35/29 16/36/31 126/172/32 127/173/30
f 16/36/31 17/37/33 125/171/34 126/172/32
f 17/37/33 18/38/35 124/170/36 125/171/34
f 18/38/35 19/39/37 123/169/38 124/170/36
f 19/39/37 20/40/39 142/189/40 123/169/38
f 20/40/39 1/41/1 141/187/4 142/189/40
s 2
f 2/2/41 1/1/42 41/83/43
f 3/3/44 2/2/41 41/83/43
f 4/4/45 3/3/44 41/83/43
f 5/5/46 4/4/45 41/83/43
f 6/6/47 5/5/46 41/83/43
f 7/7/48 6/6/47 41/83/43
f 8/8/49 7/7/48 41/83/43
f 9/9/50 8/8/49 41/83/43
f 10/10/51 9/9/50 41/83/43
f 11/11/52 10/10/51 41/83/43
f 12/12/53 11/11/52 41/83/43
f 13/13/54 12/12/53 41/83/43
f 14/14/55 13/13/54 41/83/43
f 15/15/56 14/14/55 41/83/43
f 16/16/57 15/15/56 41/83/43
f 17/17/58 16/16/57 41/83/43
f 18/18/59 17/17/58 41/83/43
f 19/19/60 18/18/59 41/83/43
f 20/20/61 19/19/60 41/83/43
f 1/1/42 20/20/61 41/83/43
s 3
f 21/81/62 22/80/63 42/84/64
f 22/80/63 23/79/65 42/84/64
f 23/79/65 24/78/66 42/84/64
f 24/78/66 25/77/67 42/84/64
f 25/77/67 26/76/68 42/84/64
f 26/76/68 27/75/69 42/84/64
f 27/75/69 28/74/70 42/84/64
f 28/74/70 29/73/71 42/84/64
f 29/73/71 30/72/72 42/84/64
f 30/72/72 31/71/73 42/84/64
f 31/71/73 32/70/74 42/84/64
f 32/70/74 33/69/75 42/84/64
f 33/69/75 34/68/76 42/84/64
f 34/68/76 35/67/77 42/84/64
f 35/67/77 36/66/78 42/84/64
f 36/66/78 37/65/79 42/84/64
f 37/65/79 38/64/80 42/84/64
f 38/64/80 39/63/81 42/84/64
f 39/63/81 40/82/82 42/84/64
f 40/82/82 21/81/62 42/84/64
s 1
f 44/87/83 43/85/84 122/167/85 103/148/86
f 45/88/87 44/87/83 103/148/86 104/149/88
f 46/89/89 45/88/87 104/149/88 105/150/90
f 47/90/91 46/89/89 105/150/90 106/151/92
f 48/91/93 47/90/91 106/151/92 107/152/94
f 49/92/95 48/91/93 107/152/94 108/153/96
f 50/93/97 49/92/95 108/153/96 109/154/98
f 51/94/99 50/93/97 109/154/98 110/155/100
f 52/95/101 51/94/99 110/155/100 111/156/102
f 53/96/103 52/95/101 111/156/102 112/157/104
f 54/97/105 53/96/103 112/157/104 113/158/106
f 55/98/107 54/97/105 113/158/106 114/159/108
f 56/99/109 55/98/107 114/159/108 115/160/110
f 57/100/111 56/99/109 115/160/110 116/161/112
f 58/101/113 57/100/111 116/161/112 117/162/114
f 59/102/115 58/101/113 117/162/114 118/163/116
f 60/103/117 59/102/115 118/163/116 119/164/118
f 61/104/119 60/103/117 119/164/118 120/165/120
f 62/105/121 61/104/119 120/165/120 121/166/122
f 43/86/84 62/105/121 121/166/122 122/168/85
f 64/107/123 63/106/124 83/127/125 84/128/126
f 65/108/127 64/107/123 84/128/126 85/129/128
f 66/109/129 65/108/127 85/129/128 86/130/130
f 67/110/131 66/109/129 86/130/130 87/131/132
f 68/111/133 67/110/131 87/131/132 88/132/134
f 69/112/135 68/111/133 88/132/134 89/133/136
f 70/113/137 69/112/135 89/133/136 90/134/138
f 71/114/139 70/113/137 90/134/138 91/135/140
f 72/115/141 71/114/139 91/135/140 92/136/142
f 73/116/143 72/115/141 92/136/142 93/137/144
f 74/117/145 73/116/143 93/137/144 94/138/146
f 75/118/147 74/117/145 94/138/146 95/139/148
f 76/119/149 75/118/147 95/139/148 96/140/150
f 77/120/151 76/119/149 96/140/150 97/141/152
f 78/121/153 77/120/151 97/141/152 98/142/154
f 79/122/155 78/121/153 98/142/154 99/143/156
f 80/124/157 79/122/155 99/143/156 100/145/158
f 81/125/159 80/123/157 100/144/158 101/146/160
f 82/126/161 81/125/159 101/146/160 102/147/162
f 63/106/124 82/126/161 102/147/162 83/127/125
f 84/128/126 83/127/125 46/89/89 47/90/91
f 85/129/128 84/128/126 47/90/91 48/91/93
f 86/130/130 85/129/128 48/91/93 49/92/95
f 87/131/132 86/130/130 49/92/95 50/93/97
f 88/132/134 87/131/132 50/93/97 51/94/99
f 89/133/136 88/132/134 51/94/99 52/95/101
f 90/134/138 89/133/136 52/95/101 53/96/103
f 91/135/140 90/134/138 53/96/103 54/97/105
f 92/136/142 91/135/140 54/97/105 55/98/107
f 93/137/144 92/136/142 55/98/107 56/99/109
f 94/138/146 93/137/144 56/99/109 57/100/111
f 95/139/148 94/138/146 57/100/111 58/101/113
f 96/140/150 95/139/148 58/101/113 59/102/115
f 97/141/152 96/140/150 59/102/115 60/103/117
f 98/142/154 97/141/152 60/103/117 61/104/119
f 99/143/156 98/142/154 61/104/119 62/105/121
f 100/145/158 99/143/156 62/105/121 43/86/84
f 101/146/160 100/144/158 43/85/84 44/87/83
f 102/147/162 101/146/160 44/87/83 45/88/87
f 83/127/125 102/147/162 45/88/87 46/89/89
f 104/149/88 103/148/86 40/61/163 39/60/164
f 105/150/90 104/149/88 39/60/164 38/59/165
f 106/151/92 105/150/90 38/59/165 37/58/166
f 107/152/94 106/151/92 37/58/166 36/57/167
f 108/153/96 107/152/94 36/57/167 35/56/168
f 109/154/98 108/153/96 35/56/168 34/55/169
f 110/155/100 109/154/98 34/55/169 33/54/170
f 111/156/102 110/155/100 33/54/170 32/53/171
f 112/157/104 111/156/102 32/53/171 31/52/172
f 113/158/106 112/157/104 31/52/172 30/51/173
f 114/159/108 113/158/106 30/51/173 29/50/174
f 115/160/110 114/159/108 29/50/174 28/49/175
f 116/161/112 115/160/110 28/49/175 27/48/176
f 117/162/114 116/161/112 27/48/176 26/47/177
f 118/163/116 117/162/114 26/47/177 25/46/178
f 119/164/118 118/163/116 25/46/178 24/45/179
f 120/165/120 119/164/118 24/45/179 23/44/180
f 121/166/122 120/165/120 23/44/180 22/43/181
f 122/168/85 121/166/122 22/43/181 21/42/182
f 103/148/86 122/167/85 21/62/182 40/61/163
f 124/170/36 123/169/38 82/126/161 63/106/124
f 125/171/34 124/170/36 63/106/124 64/107/123
f 126/172/32 125/171/34 64/107/123 65/108/127
f 127/173/30 126/172/32 65/108/127 66/109/129
f 128/174/28 127/173/30 66/109/129 67/110/131
f 129/175/26 128/174/28 67/110/131 68/111/133
f 130/176/24 129/175/26 68/111/133 69/112/135
f 131/177/22 130/176/24 69/112/135 70/113/137
f 132/178/20 131/177/22 70/113/137 71/114/139
f 133/179/18 132/178/20 71/114/139 72/115/141
f 134/180/16 133/179/18 72/115/141 73/116/143
f 135/181/14 134/180/16 73/116/143 74/117/145
f 136/182/12 135/181/14 74/117/145 75/118/147
f 137/183/10 136/182/12 75/118/147 76/119/149
f 138/184/8 137/183/10 76/119/149 77/120/151
f 139/185/6 138/184/8 77/120/151 78/121/153
f 140/186/3 139/185/6 78/121/153 79/122/155
f 141/188/4 140/186/3 79/122/155 80/124/157
f 142/189/40 141/187/4 80/123/157 81/125/159
f 123/169/38 142/189/40 81/125/159 82/126/161
